<?xml version="1.0" standalone="no"?>
<!DOCTYPE svg PUBLIC "-//W3C//DTD SVG 20010904//EN"
 "http://www.w3.org/TR/2001/REC-SVG-20010904/DTD/svg10.dtd">
<svg version="1.0" xmlns="http://www.w3.org/2000/svg"
 width="512.000000pt" height="512.000000pt" viewBox="0 0 512.000000 512.000000"
 preserveAspectRatio="xMidYMid meet">
<metadata>
Created by potrace 1.16, written by Peter Selinger 2001-2019
</metadata>
<g transform="translate(0.000000,512.000000) scale(0.100000,-0.100000)"
fill="#000000" stroke="none">
<path d="M378 4703 c-21 -24 -47 -230 -57 -445 -53 -1189 448 -2279 1304
-2837 293 -190 550 -264 1005 -287 74 -4 146 -10 160 -14 l25 -6 5 -348 c5
-371 5 -372 55 -363 11 2 449 320 973 706 861 635 952 705 952 730 0 16 -10
36 -22 48 -13 11 -441 329 -952 707 -942 696 -967 713 -993 674 -4 -7 -10
-168 -13 -358 l-5 -345 -33 -3 c-40 -4 -222 30 -352 65 -899 243 -1579 875
-1883 1750 -25 70 -55 170 -67 221 -13 51 -29 100 -37 108 -19 19 -47 18 -65
-3z"/>
</g>
</svg>
